{
  "accessors": [
    {
      "bufferView": 0,
      "componentType": 5126,
      "count": 2801,
      "max": [
        6.217835903167725,
        2.6383299827575684,
        5.2291436195373535
      ],
      "min": [
        -9.788209915161133,
        -0.023179300129413605,
        -8.667099952697754
      ],
      "type": "VEC3"
    },
    {
      "bufferView": 1,
      "componentType": 5125,
      "count": 5402,
      "type": "SCALAR"
    },
    {
      "bufferView": 2,
      "componentType": 5126,
      "count": 2801,
      "type": "VEC3"
    },
    {
      "bufferView": 3,
      "componentType": 5126,
      "count": 2801,
      "type": "VEC4"
    },
    {
      "bufferView": 4,
      "componentType": 5126,
      "count": 2801,
      "type": "VEC2"
    }
  ],
  "asset": {
    "version": "2.0"
  },
  "bufferViews": [
    {
      "buffer": 0,
      "byteLength": 33612,
      "target": 34962
    },
    {
      "buffer": 1,
      "byteLength": 21608,
      "target": 34963
    },
    {
      "buffer": 2,
      "byteLength": 33612,
      "target": 34962
    },
    {
      "buffer": 3,
      "byteLength": 44816,
      "target": 34962
    },
    {
      "buffer": 4,
      "byteLength": 22408,
      "target": 34962
    }
  ],
  "buffers": [
    {
      "byteLength": 33612,
      "uri": "data:application/octet-stream;base64,"
    },
    {
      "byteLength": 21608,
      "uri": "data:application/octet-stream;base64,"
    },
    {
      "byteLength": 33612,
      "uri": "data:application/octet-stream;base64,"
    },
    {
      "byteLength": 44816,
      "uri": "data:application/octet-stream;base64,"
    },
    {
      "byteLength": 22408,
      "uri": "data:application/octet-stream;base64,"
    }
  ],
  "materials": [
    {
      "doubleSided": true,
      "name": "BlueprintTexture",
      "pbrMetallicRoughness": {
        "baseColorFactor": [
          0.800000011920929,
          0.800000011920929,
          0.800000011920929,
          1.0
        ]
      }
    }
  ],
  "meshes": [
    {
      "name": "Blueprint_Roll_BlueprintTexture_0",
      "primitives": [
        {
          "attributes": {
            "NORMAL": 2,
            "POSITION": 0,
            "TANGENT": 3,
            "TEXCOORD_0": 4
          },
          "indices": 1,
          "material": 0,
          "mode": 5
        }
      ]
    }
  ],
  "nodes": [
    {
      "mesh": 0,
      "name": "Blueprint_Roll_BlueprintTexture_0"
    },
    {
      "children": [
        0
      ],
      "name": "Blueprint_Roll"
    },
    {
      "children": [
        1
      ],
      "name": "RootNode"
    },
    {
      "children": [
        2
      ],
      "name": "d382693a17964fa8ac42e41c160048de.fbx",
      "rotation": [
        1.1102230246251565e-16,
        0.0,
        0.0,
        1.0
      ],
      "scale": [
        1.0,
        1.0,
        1.0
      ],
      "translation": [
        0.0,
        0.0,
        0.0
      ]
    }
  ],
  "scene": 0,
  "scenes": [
    {
      "nodes": [
        3
      ]
    }
  ]
}
