<?xml version="1.0" encoding="UTF-8"?>
<svg id="uuid-da921fc8-3560-4b0b-aafb-3997b9c64502" data-name="uuid-d5fd9c03-4b54-41c7-bc3d-f81075b81d62" xmlns="http://www.w3.org/2000/svg" viewBox="0 0 629.37 819.69">
  <path d="M579.58,381.74L628.68,13.84l-178.5,171L315.68.84l-136.5,184L.68,13.84l49.1,367.9h529.8ZM577.78,88.04c4.4.2,28.8,1.7,30.5,3.8l-5.6,46-31-3,6.1-46.9v.1ZM567.68,159.34l1.6-2.4c3.8,1.3,27.8,2.2,28.9,3.9,2,2.8-5.1,40.7-5.6,47.1l-29.9-4.1,4.9-44.4.1-.1ZM558.68,226.84l30.1,3.4,1,3c-2.2,5.9-4.3,42-7,44.1l-30.1-3.6,6-47v.1ZM549.78,297.04l29.9,3.3-5.5,46.6-1.1.8-29.3-4,6-46.8v.1ZM21.08,91.84c1.7-2.1,26.1-3.6,30.5-3.8l6.1,46.9-31,3-5.6-46v-.1ZM30.68,166.34c0-1.7-.5-5,.9-6,2.8-1.9,23-1.2,27.7-3.4l2,.9,5.3,45.9-29.9,4.1-6-41.5h0ZM40.08,230.84l30.6-3.9,6,47-30.1,3.6-6.5-46.7h0ZM79.58,297.04l6,46.8-29.3,4-7.1-46.9,30.4-3.9Z" style="fill: #fff; stroke: #fff; stroke-miterlimit: 10;"/>
  <path d="M49.78,437.94L.68,805.84l178.5-171,136.5,184,134.5-184,178.5,171-49.1-367.9H49.78ZM51.58,731.74c-1.2,1-26.2-2.5-29.9-3.4l5-46.5,31,3-6.1,46.9ZM61.18,661.94l-2,.9c-4.7-2.2-24.9-1.5-27.7-3.4-1.5-1-1-4.4-.9-6l6-41.5,29.9,4.1-5.3,45.9ZM70.68,592.84l-30.1-3.4-1-3c2.2-5.9,4.3-42,7-44.1l30.1,3.6-6,47v-.1ZM79.58,522.74l-29.9-3.3,5.5-46.6,1.1-.8,29.3,4-6,46.8v-.1ZM608.28,727.94c-1.7,2.1-26.1,3.6-30.5,3.8l-6.1-46.9,31-3,5.6,46v.1ZM598.18,658.94c-1.2,1.7-25.1,2.5-28.9,3.9l-1.6-2.4-4.9-44.4,29.9-4.1c.4,6.3,7.6,44.2,5.6,47.1l-.1-.1ZM589.28,588.94l-30.6,3.9-6-47,30.1-3.6,6.5,46.7h0ZM549.78,522.74l-6-46.8,29.3-4,7.1,46.9-30.4,3.9h0Z" style="fill: #fff; stroke: #fff; stroke-miterlimit: 10;"/>
</svg>