<?xml version="1.0" encoding="UTF-8"?>
<svg id="uuid-d5fd9c03-4b54-41c7-bc3d-f81075b81d62" data-name="Layer 1" xmlns="http://www.w3.org/2000/svg" viewBox="0 0 629.4 819.7">
  <defs>
    <style>
      .uuid-62d2d5bc-183a-447f-ae1c-43cbcecd159b {
        stroke: #000;
        stroke-miterlimit: 10;
      }
    </style>
  </defs>
  <path class="uuid-62d2d5bc-183a-447f-ae1c-43cbcecd159b" d="M579.6,381.7L628.7,13.8l-178.5,171L315.7.8l-136.5,184L.7,13.8l49.1,367.9h529.8ZM577.8,88c4.4.2,28.8,1.7,30.5,3.8l-5.6,46-31-3,6.1-46.9ZM567.7,159.3l1.6-2.4c3.8,1.3,27.8,2.2,28.9,3.9,2,2.8-5.1,40.7-5.6,47.1l-29.9-4.1,4.9-44.4ZM558.7,226.8l30.1,3.4,1,3c-2.2,5.9-4.3,42-7,44.1l-30.1-3.6,6-47ZM549.8,297l29.9,3.3-5.5,46.6-1.1.8-29.3-4,6-46.8ZM21.1,91.8c1.7-2.1,26.1-3.6,30.5-3.8l6.1,46.9-31,3-5.6-46ZM30.7,166.3c0-1.7-.5-5,.9-6,2.8-1.9,23-1.2,27.7-3.4l2,.9,5.3,45.9-29.9,4.1-6-41.5ZM40.1,230.8l30.6-3.9,6,47-30.1,3.6-6.5-46.7ZM79.6,297l6,46.8-29.3,4-7.1-46.9,30.4-3.9Z"/>
  <path class="uuid-62d2d5bc-183a-447f-ae1c-43cbcecd159b" d="M49.8,437.9L.7,805.8l178.5-171,136.5,184,134.5-184,178.5,171-49.1-367.9H49.8ZM51.6,731.7c-1.2,1-26.2-2.5-29.9-3.4l5-46.5,31,3-6.1,46.9ZM61.2,661.9l-2,.9c-4.7-2.2-24.9-1.5-27.7-3.4-1.5-1-1-4.4-.9-6l6-41.5,29.9,4.1-5.3,45.9ZM70.7,592.8l-30.1-3.4-1-3c2.2-5.9,4.3-42,7-44.1l30.1,3.6-6,47ZM79.6,522.7l-29.9-3.3,5.5-46.6,1.1-.8,29.3,4-6,46.8ZM608.3,727.9c-1.7,2.1-26.1,3.6-30.5,3.8l-6.1-46.9,31-3,5.6,46ZM598.2,658.9c-1.2,1.7-25.1,2.5-28.9,3.9l-1.6-2.4-4.9-44.4,29.9-4.1c.4,6.3,7.6,44.2,5.6,47.1ZM589.3,588.9l-30.6,3.9-6-47,30.1-3.6,6.5,46.7ZM549.8,522.7l-6-46.8,29.3-4,7.1,46.9-30.4,3.9Z"/>
</svg>